Coordinates
version=1
nRows=11
nColumns=36
inDegrees=yes

Units are S.I. units (second, meters, Newtons, ...)
If the header above contains a line with 'inDegrees', this indicates whether rotational values are in degrees (yes) or radians (no).

endheader
time	pelvis_tilt	pelvis_list	pelvis_rotation	pelvis_tx	pelvis_ty	pelvis_tz	hip_flexion_r	hip_adduction_r	hip_rotation_r	knee_angle_r	knee_angle_r_beta	ankle_angle_r	subtalar_angle_r	mtp_angle_r	hip_flexion_l	hip_adduction_l	hip_rotation_l	knee_angle_l	knee_angle_l_beta	ankle_angle_l	subtalar_angle_l	mtp_angle_l	lumbar_extension	lumbar_bending	lumbar_rotation	arm_flex_r	arm_add_r	arm_rot_r	elbow_flex_r	pro_sup_r	arm_flex_l	arm_add_l	arm_rot_l	elbow_flex_l	pro_sup_l
      0.00000000	    -16.76937462	     -2.42111447	     -5.34846914	      0.26024259	      0.88420675	     -0.07181918	     35.88144685	     -2.76923869	     -0.88784819	     31.20331893	      0.54460065	      6.11525682	    -22.23486034	     -6.26647495	     33.29996585	    -12.66847549	     -5.70462422	     28.67288647	      0.50043627	     14.29745401	     -2.66844575	     -6.26647495	      5.01264157	      2.76749505	     -2.49968280	     71.26565371	      7.32959536	     47.46816903	     94.49952470	     74.60399499	     74.01947808	     -5.08698994	     62.18928582	     98.56388626	     62.21820025
      0.01666670	    -15.58513617	     -1.74622749	     -5.40541688	      0.26034100	      0.87389668	     -0.07281093	     37.58790426	     -5.48017775	     -3.84134547	     37.05652021	      0.64675829	     13.33274281	    -13.11310216	     -6.53308787	     35.18954321	    -12.91587686	     -6.31006128	     34.95364770	      0.61005624	     14.54044535	     -6.76293506	     -6.53308787	      1.65499817	      1.69094836	      1.64006737	     77.22886363	      4.59140418	     63.13107266	    105.92477498	     76.25406219	     76.44711771	     -2.13761312	     70.92815322	    106.36755033	     65.54789418
      0.03333330	    -15.76926206	     -2.24962374	     -4.12841367	      0.26303454	      0.86705226	     -0.07319506	     38.04718816	     -6.45146885	     -5.33371779	     38.73352419	      0.67602753	     16.74714613	    -10.95970300	     -6.73391551	     37.37689123	    -13.46142375	     -5.13647261	     38.65775040	      0.67470503	     18.35872027	     -4.13210274	     -6.73391551	      2.46143776	      1.57231467	      2.27556808	     76.91006781	      5.42327485	     65.68869299	    112.81434088	     78.37221904	     72.28455108	     -1.19219603	     67.10434030	    104.46874304	     69.85137649
      0.05000000	    -16.34939315	     -2.20474072	     -4.22159979	      0.26552093	      0.85517090	     -0.07360239	     40.43026024	     -7.85277006	     -6.88797211	     42.55349563	      0.74269861	     21.39905136	     -6.61448077	     -6.95844387	     39.99720254	    -14.46032204	     -5.59693772	     43.24839162	      0.75482683	     22.16448222	     -2.23591274	     -6.95844387	      3.34334394	      1.56167007	      2.69664592	     75.99611020	      3.49644513	     65.70716966	    114.88048468	     91.81995740	     69.32420300	     -1.63099920	     63.60381443	    104.03838314	     92.46418441
      0.06666670	    -17.01566839	     -2.19027479	     -4.19390532	      0.26135141	      0.84439984	     -0.07096675	     43.42971989	     -9.09707044	     -7.96930350	     47.22672948	      0.82426192	     25.33609934	     -2.94603490	     -6.97019134	     43.16958166	    -15.45893070	     -5.93954348	     47.94578420	      0.83681180	     25.73608965	     -0.05374492	     -6.97019134	      3.59239377	      1.49937205	      2.82243442	     76.56219916	      1.11700418	     64.97204234	    113.66786039	     91.68926723	     69.44369622	     -1.80271255	     62.97380756	    103.18833200	     92.46831342
      0.08333330	    -17.75886371	     -2.01996545	     -4.49326672	      0.26175503	      0.83303062	     -0.07074111	     46.58278387	    -10.19723141	     -8.70144073	     51.55215371	      0.89975482	     28.13592111	      0.05660424	     -6.98348021	     46.02283689	    -16.41827258	     -6.43893859	     51.79688203	      0.90402613	     27.73532302	      1.13584831	     -6.98348021	      3.81869937	      1.40850527	      2.18575983	     75.88080689	      0.13895495	     66.06561611	    112.35418320	     91.68946667	     69.88514876	     -1.59022730	     63.46149353	    103.59053628	     92.39528198
      0.10000000	    -18.16852241	     -2.01610884	     -4.61363087	      0.25527377	      0.81871379	     -0.06788350	     49.16384869	    -10.92054214	     -9.19316694	     55.25441316	      0.96437144	     30.16081593	      2.12048708	     -6.99314159	     48.57247540	    -17.33665965	     -6.62650709	     55.17705705	      0.96302132	     28.83249473	      1.71870035	     -6.99314159	      3.02859686	      1.33970801	      2.40329842	     78.18380041	      0.38467013	     65.47487554	    112.65728911	     91.63056072	     72.15656581	     -0.33325872	     61.29328746	    104.62006203	     92.21672857
      0.11666670	    -18.84174303	     -1.92033097	     -4.91308390	      0.25373925	      0.80359148	     -0.06802054	     51.96218845	    -11.55086831	     -9.29709418	     58.78427377	      1.02597913	     31.85540692	      3.61744662	     -6.98784351	     51.22495734	    -18.13910083	     -6.59393035	     58.28571284	      1.01727760	     29.78048021	      2.06361677	     -6.98784351	      3.22454637	      1.26054634	      3.26201282	     78.11184102	      1.77280210	     67.45005449	    114.33165792	     90.74369754	     70.98376647	     -1.17976534	     61.35161266	    106.95292292	     91.22113285
      0.13333330	    -19.05646192	     -1.82682074	     -4.94953257	      0.25369264	      0.79028871	     -0.06799092	     54.08181139	    -12.15379206	     -9.07919314	     62.13814792	      1.08451527	     33.46498946	      4.60807529	     -7.01998680	     53.21732246	    -18.69753200	     -6.53295298	     61.08516602	      1.06613727	     30.68082012	      2.30575531	     -7.01998680	      3.36250211	      1.22361498	      2.82527226	     77.53186414	      2.93246165	     68.60198825	    110.45382305	     88.34141779	     70.89911422	     -2.05118229	     61.61688169	    105.03625815	     88.82722746
      0.15000000	    -19.18051508	     -1.75698055	     -4.93507813	      0.25225771	      0.78584415	     -0.06773394	     55.72534103	    -12.57889948	     -8.74988553	     64.77363971	      1.13051328	     34.65075701	      5.14343250	     -7.04772529	     54.91195184	    -19.14507065	     -6.37976673	     63.49512719	      1.10819903	     31.23821454	      2.38126246	     -7.04772529	      2.60771831	      1.20126774	      1.92189507	     78.40181738	      3.24805738	     67.82903843	    107.58817525	     86.91731343	     72.05705725	     -1.52038196	     59.82686055	    101.63181701	     87.35626967
      0.16666670	    -19.50760772	     -1.77010234	     -4.97543377	      0.25282347	      0.78021966	     -0.06791036	     57.14256872	    -12.76438073	     -8.54451926	     66.63023849	      1.16291704	     35.47116104	      5.34212503	     -7.05993972	     56.51242805	    -19.56282139	     -6.10686373	     65.36940995	      1.14091143	     31.51295031	      2.26287530	     -7.05993972	      1.69759426	      1.10618195	      2.30466073	     78.67500059	      1.97505516	     67.51574386	    105.61171280	     86.44423438	     73.21024402	     -1.56056586	     62.11982343	    103.91826041	     87.12589643
